<?xml version="1.0" encoding="utf-8"?>
<!-- Generator: Adobe Illustrator 23.1.0, SVG Export Plug-In . SVG Version: 6.00 Build 0)  -->
<svg version="1.1" xmlns="http://www.w3.org/2000/svg" xmlns:xlink="http://www.w3.org/1999/xlink" x="0px" y="0px"
	 viewBox="0 0 106.3 84.58" style="enable-background:new 0 0 106.3 84.58;" xml:space="preserve">
<style type="text/css">
	.st0{fill:#FFFFFF;}
</style>
<g id="BACKGROUND">
</g>
<g id="OBJECTS">
	<g>
		<g>
			<g>
				<path class="st0" d="M106.3,77.68V57.94c0-6.04-7.22-9.17-11.62-5.03l-21,19.74c-4.55,4.28-1.52,11.93,4.73,11.93h21
					C103.21,84.58,106.3,81.49,106.3,77.68z"/>
				<path class="st0" d="M6.9,84.58h21c6.25,0,9.28-7.65,4.72-11.93l-21-19.74C7.22,48.77,0,51.9,0,57.94v19.74
					C0,81.49,3.09,84.58,6.9,84.58z"/>
			</g>
			<path class="st0" d="M48.42,36.48L11.62,1.89C7.22-2.25,0,0.87,0,6.91v19.87c0,1.9,0.79,3.72,2.17,5.03l46.25,43.47
				c2.66,2.5,6.79,2.5,9.45,0l46.25-43.47c1.39-1.3,2.17-3.12,2.17-5.03V6.91c0-6.04-7.22-9.17-11.62-5.03l-36.8,34.59
				C55.22,38.97,51.08,38.97,48.42,36.48z"/>
		</g>
	</g>
</g>
</svg>
